<?xml version="1.0" encoding="utf-8"?>
<!-- Generator: Adobe Illustrator 16.0.0, SVG Export Plug-In . SVG Version: 6.00 Build 0)  -->
<!DOCTYPE svg PUBLIC "-//W3C//DTD SVG 1.1//EN" "http://www.w3.org/Graphics/SVG/1.1/DTD/svg11.dtd">
<svg version="1.1" id="Layer_1" xmlns="http://www.w3.org/2000/svg" xmlns:xlink="http://www.w3.org/1999/xlink" x="0px" y="0px"
	 width="410.107px" height="275.225px" viewBox="0 0 410.107 275.225" enable-background="new 0 0 410.107 275.225"
	 xml:space="preserve">
<g>
	<path fill="#97ACBB" d="M205.172,57.509c0-8.936-1.167-16.962-3.502-24.07c-2.341-7.105-5.643-13.133-9.923-18.088
		c-4.267-4.955-9.402-8.752-15.398-11.39C170.358,1.321,163.735,0,156.481,0c-7.203,0-13.787,1.321-19.752,3.961
		c-5.966,2.638-11.083,6.435-15.357,11.39c-4.273,4.955-7.605,10.982-9.996,18.088c-2.393,7.108-3.588,15.135-3.588,24.07v5.976
		c0,8.94,1.195,16.949,3.588,24.03c2.391,7.08,5.75,13.084,10.076,18.012c4.326,4.926,9.472,8.707,15.437,11.347
		c5.969,2.642,12.55,3.961,19.752,3.961c7.255,0,13.871-1.319,19.832-3.961c5.963-2.64,11.077-6.421,15.315-11.347
		c4.253-4.928,7.541-10.932,9.882-18.012c2.335-7.081,3.502-15.09,3.502-24.03V57.509z M184.777,63.484
		c0,13.249-2.432,23.318-7.296,30.207c-4.864,6.894-11.806,10.341-20.84,10.341c-4.35,0-8.29-0.875-11.81-2.627
		c-3.52-1.751-6.519-4.329-8.988-7.755c-2.474-3.419-4.368-7.654-5.685-12.717c-1.316-5.062-1.974-10.879-1.974-17.449V57.35
		c0-6.57,0.658-12.373,1.974-17.407c1.316-5.035,3.197-9.249,5.643-12.64c2.445-3.392,5.413-5.962,8.909-7.714
		c3.495-1.751,7.414-2.626,11.771-2.626c4.461,0,8.45,0.875,11.973,2.626c3.517,1.752,6.491,4.322,8.908,7.714
		c2.419,3.391,4.252,7.604,5.518,12.64c1.265,5.034,1.897,10.837,1.897,17.407V63.484z"/>
	<path fill="#97ACBB" d="M259.192,119.215c8.109,0,15.489-1.312,22.126-3.954c6.643-2.64,12.307-6.379,17.01-11.229
		c4.704-4.844,8.332-10.702,10.883-17.567c2.557-6.865,3.835-14.551,3.835-23.06V57.59c0-8.506-1.292-16.206-3.877-23.099
		c-2.577-6.894-6.192-12.775-10.841-17.65c-4.647-4.871-10.214-8.627-16.69-11.268c-6.477-2.634-13.635-3.953-21.486-3.953h-34.66
		v117.595H259.192z M260.151,18.096c10.534,0,18.574,3.366,24.112,10.097c5.531,6.729,8.297,16.475,8.297,29.236v5.977
		c0,6.14-0.694,11.657-2.091,16.56c-1.396,4.899-3.482,9.043-6.248,12.435c-2.766,3.391-6.254,5.99-10.437,7.797
		c-4.197,1.807-9.062,2.709-14.593,2.709h-13.307v-84.81H260.151z"/>
	<path fill="#97ACBB" d="M401.963,50.563h-48.211V18.096h55.785V1.62h-76.18v117.595h76.75v-16.31h-56.355V66.716h48.211V50.563z"/>
	<path fill="#97ACBB" d="M72.959,235.323c-0.482,3.766-1.274,7.102-2.375,10.014c-1.102,2.905-2.648,5.357-4.635,7.345
		c-1.99,1.995-4.503,3.503-7.54,4.524c-3.036,1.022-6.761,1.536-11.166,1.536c-4.729,0-8.787-0.946-12.171-2.821
		c-3.388-1.891-6.157-4.545-8.304-7.965c-2.151-3.418-3.739-7.52-4.756-12.313c-1.021-4.794-1.533-10.124-1.533-15.995v-9.687
		c0-6.192,0.577-11.717,1.734-16.56c1.154-4.844,2.888-8.93,5.198-12.237c2.31-3.308,5.201-5.844,8.668-7.595
		c3.464-1.744,7.509-2.62,12.133-2.62c4.189,0,7.766,0.535,10.721,1.612c2.954,1.077,5.4,2.654,7.335,4.726
		c1.935,2.07,3.426,4.593,4.476,7.554c1.049,2.96,1.786,6.303,2.216,10.013h20.315c-0.59-5.864-1.945-11.278-4.068-16.232
		c-2.126-4.955-5.053-9.222-8.788-12.8c-3.738-3.586-8.293-6.379-13.665-8.401c-5.379-2.021-11.556-3.03-18.543-3.03
		c-7.367,0-14.016,1.321-19.953,3.954c-5.942,2.642-11.005,6.38-15.198,11.229c-4.194,4.851-7.418,10.701-9.672,17.566
		C1.13,194.005,0,201.663,0,210.12v9.527c0,8.511,1.102,16.185,3.308,23.021c2.203,6.838,5.361,12.668,9.472,17.491
		c4.11,4.815,9.082,8.533,14.912,11.145c5.833,2.613,12.348,3.92,19.551,3.92c7.202,0,13.557-1,19.067-2.996
		c5.506-1.994,10.169-4.76,13.988-8.317c3.815-3.558,6.795-7.768,8.947-12.641c2.15-4.871,3.495-10.193,4.03-15.947H72.959z"/>
	<path fill="#97ACBB" d="M205.172,211.892c0-8.936-1.167-16.955-3.502-24.063c-2.341-7.109-5.643-13.14-9.923-18.088
		c-4.267-4.961-9.402-8.755-15.398-11.396c-5.99-2.633-12.613-3.954-19.867-3.954c-7.203,0-13.787,1.321-19.752,3.954
		c-5.966,2.642-11.083,6.436-15.357,11.396c-4.273,4.948-7.605,10.979-9.996,18.088c-2.393,7.108-3.588,15.128-3.588,24.063v5.984
		c0,8.935,1.195,16.947,3.588,24.027c2.391,7.081,5.75,13.086,10.076,18.012c4.326,4.928,9.472,8.709,15.437,11.349
		c5.969,2.634,12.55,3.961,19.752,3.961c7.255,0,13.871-1.327,19.832-3.961c5.963-2.64,11.077-6.421,15.315-11.349
		c4.253-4.926,7.541-10.931,9.882-18.012c2.335-7.08,3.502-15.093,3.502-24.027V211.892z M184.777,217.876
		c0,13.244-2.432,23.312-7.296,30.205s-11.806,10.34-20.84,10.34c-4.35,0-8.29-0.874-11.81-2.626
		c-3.52-1.751-6.519-4.337-8.988-7.755c-2.474-3.418-4.368-7.656-5.685-12.717c-1.316-5.065-1.974-10.881-1.974-17.447v-6.137
		c0-6.574,0.658-12.376,1.974-17.414c1.316-5.031,3.197-9.242,5.643-12.633s5.413-5.962,8.909-7.713
		c3.495-1.752,7.414-2.627,11.771-2.627c4.461,0,8.45,0.875,11.973,2.627c3.517,1.751,6.491,4.322,8.908,7.713
		c2.419,3.391,4.252,7.602,5.518,12.633c1.265,5.038,1.897,10.84,1.897,17.414V217.876z"/>
	<path fill="#97ACBB" d="M294.097,204.95h-48.211v-32.473h55.792v-16.476h-76.187v117.603h76.743V257.29h-56.349v-36.184h48.211
		V204.95z"/>
	<g>
		<path fill="#97ACBB" d="M48.211,16.56c4.189,0,7.766,0.539,10.721,1.616c2.954,1.077,5.4,2.654,7.335,4.725
			c1.935,2.075,3.426,5.164,4.476,8.125c1.049,2.959,1.786,2.587,2.216,10.587h20.315c-0.59-8-1.945-11.853-4.068-16.808
			c-2.126-4.955-5.053-9.504-8.788-13.086c-3.738-3.579-8.293-6.529-13.665-8.547c-5.062-1.899-10.893-2.896-17.379-3.008
			L39.206,18.128C41.939,17.215,44.869,16.56,48.211,16.56z"/>
		<path fill="#97ACBB" d="M21.499,50.825L2.477,83.805c0.369,1.521,0.559,3.028,1.028,4.478c2.203,6.842,5.264,12.664,9.375,17.486
			s9.032,8.533,14.861,11.146c5.833,2.612,12.322,3.919,19.525,3.919c7.202,0,13.545-1.001,19.056-2.987
			c5.507-1.995,10.163-4.768,13.981-8.325c3.815-3.551,6.794-6.423,8.945-11.295c2.15-4.877,3.492-8.614,4.027-14.614H72.959
			c-0.482,0-1.274,5.769-2.375,8.673c-1.102,2.912-2.648,4.693-4.635,6.68c-1.99,2.001-4.503,3.172-7.54,4.194
			c-3.036,1.021-6.761,1.36-11.166,1.36c-4.729,0-8.787-1.025-12.171-2.908c-3.388-1.891-6.157-4.576-8.304-7.993
			c-2.151-3.42-2.949-7.548-3.969-12.342c-1.022-4.789-0.745-10.145-0.745-16.012v-9.693C22.054,53.896,21.416,52.397,21.499,50.825
			z"/>
	</g>
	<path fill-rule="evenodd" clip-rule="evenodd" fill="#97ACBB" d="M382.785,157.815l17.372,6.512l-59.67,109.251l-17.365-6.513
		L382.785,157.815z"/>
</g>
</svg>
